<svg width="74" height="71" viewBox="0 0 74 71" fill="none" xmlns="http://www.w3.org/2000/svg">
<rect width="74" height="71" fill="white"/>
<path d="M61.1952 56.4878C59.9016 54.3858 45.0001 20.6504 37.7805 4L28.8049 24.2927L40.9025 51.0244C42.2683 54.5366 41.683 56.4878 40.9025 59.0244C39.6949 62.9491 35.6992 64.748 33.4879 65.0732H69.9757C67.6342 63.7073 64.3171 61.561 61.1952 56.4878Z" fill="#6885FF"/>
<path d="M17.6829 61.1706C15.6536 58.8291 15.7967 54.8616 16.1219 53.1706C13.7805 59.4145 9.29268 63.3169 5 65.4632H23.5366C22.4309 65.008 19.7122 63.512 17.6829 61.1706Z" fill="#6885FF"/>
<ellipse cx="28.6098" cy="55.5121" rx="13.0732" ry="12.4878" fill="white"/>
</svg>
