<svg width="14" height="14" viewBox="0 0 14 14" fill="none" xmlns="http://www.w3.org/2000/svg">
<g id="FiRotateCcw">
<path id="Vector (Stroke)" fill-rule="evenodd" clip-rule="evenodd" d="M0.583333 1.75C0.905499 1.75 1.16667 2.01117 1.16667 2.33333V5.25H4.08333C4.4055 5.25 4.66667 5.51117 4.66667 5.83333C4.66667 6.1555 4.4055 6.41667 4.08333 6.41667H0.583333C0.261167 6.41667 0 6.1555 0 5.83333V2.33333C0 2.01117 0.261167 1.75 0.583333 1.75Z" fill="white"/>
<path id="Vector (Stroke)_2" fill-rule="evenodd" clip-rule="evenodd" d="M6.18646 1.22902C7.43883 1.05282 8.71454 1.2884 9.82138 1.90027C10.9282 2.51214 11.8062 3.46716 12.3231 4.62142C12.84 5.77567 12.9677 7.06665 12.6871 8.29983C12.4065 9.533 11.7327 10.6416 10.7672 11.4585C9.80176 12.2754 8.59697 12.7565 7.33435 12.8292C6.07174 12.9018 4.81971 12.5622 3.76691 11.8614C2.71411 11.1606 1.91757 10.1367 1.49732 8.94385C1.39026 8.63999 1.5498 8.30688 1.85366 8.19983C2.15752 8.09277 2.49063 8.25231 2.59769 8.55617C2.93389 9.51044 3.57112 10.3296 4.41336 10.8902C5.2556 11.4508 6.25723 11.7226 7.26732 11.6644C8.27741 11.6063 9.24125 11.2214 10.0136 10.5679C10.786 9.91435 11.325 9.02749 11.5495 8.04095C11.774 7.05441 11.6718 6.02163 11.2583 5.09822C10.8448 4.17482 10.1424 3.41081 9.25693 2.92131C8.37147 2.43181 7.3509 2.24335 6.349 2.38431C5.34711 2.52527 4.41816 2.98802 3.70213 3.70284C3.69797 3.707 3.69374 3.71109 3.68945 3.71512L0.982788 6.25845C0.748009 6.47906 0.378841 6.46758 0.158229 6.2328C-0.0623826 5.99802 -0.0508975 5.62885 0.183882 5.40824L2.88429 2.87079C3.77845 1.9809 4.93708 1.4048 6.18646 1.22902Z" fill="white"/>
</g>
</svg>
